<svg width="32" height="35" viewBox="0 0 32 35" fill="none" xmlns="http://www.w3.org/2000/svg">
<path d="M10.6375 10.6087C12.3818 8.75001 14.8124 7.66341 17.5289 7.66341C20.2454 7.66341 22.6759 8.75001 24.4202 10.5229C25.9643 12.067 28.3663 12.067 29.9104 10.5229C31.4545 8.97877 31.4545 6.5768 29.9104 5.03268C26.7364 1.97304 22.3614 0 17.5289 0C12.6964 0 8.32137 1.97304 5.14735 5.14706C3.60323 6.69118 3.60323 9.09314 5.14735 10.6373C6.69146 12.0098 9.09343 12.0098 10.6375 10.6087Z" fill="#BBB8C7"/>
<path d="M24.4202 24.3913C22.6759 26.2499 20.2454 27.3365 17.5289 27.3365C14.8124 27.3365 12.3818 26.2499 10.6375 24.4771C9.09343 22.9329 6.69146 22.9329 5.14735 24.4771C3.60323 26.0212 3.60323 28.4231 5.14735 29.9673C8.32137 33.0269 12.6964 34.9999 17.5289 34.9999C22.3614 34.9999 26.7364 33.0269 29.9104 29.8529C31.4545 28.3088 31.4545 25.9068 29.9104 24.3627C28.3663 22.9901 25.9643 22.9901 24.4202 24.3913Z" fill="#BBB8C7"/>
<path d="M10.6373 24.3913C8.7786 22.647 7.6634 20.2451 7.6634 17.5C7.6634 14.7549 8.75 12.3529 10.5229 10.6086C12.067 9.06449 12.067 6.66253 10.5229 5.11842C8.97876 3.5743 6.5768 3.5743 5.03268 5.11842C1.97304 8.29244 0 12.6674 0 17.5C0 22.3325 1.97304 26.7075 5.14706 29.8815C6.69118 31.4256 9.09314 31.4256 10.6373 29.8815C12.0384 28.3374 12.0384 25.9354 10.6373 24.3913Z" fill="#BBB8C7" fill-opacity="0.4"/>
<path d="M7.89225 11.6953C10.0084 11.6953 11.7239 9.97975 11.7239 7.86356C11.7239 5.74737 10.0084 4.03186 7.89225 4.03186C5.77606 4.03186 4.06055 5.74737 4.06055 7.86356C4.06055 9.97975 5.77606 11.6953 7.89225 11.6953Z" fill="#BBB8C7" fill-opacity="0.4"/>
<path d="M7.89225 30.9681C10.0084 30.9681 11.7239 29.2526 11.7239 27.1364C11.7239 25.0202 10.0084 23.3047 7.89225 23.3047C5.77606 23.3047 4.06055 25.0202 4.06055 27.1364C4.06055 29.2526 5.77606 30.9681 7.89225 30.9681Z" fill="#BBB8C7" fill-opacity="0.4"/>
</svg>
