<svg width="33" height="35" viewBox="0 0 33 35" fill="none" xmlns="http://www.w3.org/2000/svg">
<g clip-path="url(#clip0_1895_111)">
<path d="M11.1373 24.3913C9.2786 22.647 8.1634 20.2451 8.1634 17.5C8.1634 14.7549 9.25 12.3529 11.0229 10.6086C12.567 9.06449 12.567 6.66253 11.0229 5.11842C9.47876 3.5743 7.0768 3.5743 5.53268 5.11842C2.47304 8.29244 0.5 12.6674 0.5 17.5C0.5 22.3325 2.47304 26.7075 5.64706 29.8815C7.19118 31.4256 9.59314 31.4256 11.1373 29.8815C12.5384 28.3374 12.5384 25.9354 11.1373 24.3913Z" fill="white" fill-opacity="0.4"/>
<path d="M24.9202 24.3913C23.1759 26.2499 20.7454 27.3365 18.0289 27.3365C15.3124 27.3365 12.8818 26.2499 11.1375 24.4771C9.59343 22.9329 7.19146 22.9329 5.64735 24.4771C4.10323 26.0212 4.10323 28.4231 5.64735 29.9673C8.82137 33.0269 13.1964 34.9999 18.0289 34.9999C22.8614 34.9999 27.2364 33.0269 30.4104 29.8529C31.9545 28.3088 31.9545 25.9068 30.4104 24.3627C28.8663 22.9901 26.4643 22.9901 24.9202 24.3913Z" fill="white"/>
<path d="M11.1375 10.6087C12.8818 8.75001 15.3124 7.66341 18.0289 7.66341C20.7454 7.66341 23.1759 8.75001 24.9202 10.5229C26.4643 12.067 28.8663 12.067 30.4104 10.5229C31.9545 8.97877 31.9545 6.5768 30.4104 5.03268C27.2364 1.97304 22.8614 0 18.0289 0C13.1964 0 8.82137 1.97304 5.64735 5.14706C4.10323 6.69118 4.10323 9.09314 5.64735 10.6373C7.19146 12.0098 9.59343 12.0098 11.1375 10.6087Z" fill="white"/>
<path d="M8.39225 11.6953C10.5084 11.6953 12.2239 9.97975 12.2239 7.86356C12.2239 5.74737 10.5084 4.03186 8.39225 4.03186C6.27606 4.03186 4.56055 5.74737 4.56055 7.86356C4.56055 9.97975 6.27606 11.6953 8.39225 11.6953Z" fill="white"/>
<path d="M8.39225 30.9681C10.5084 30.9681 12.2239 29.2526 12.2239 27.1364C12.2239 25.0202 10.5084 23.3047 8.39225 23.3047C6.27606 23.3047 4.56055 25.0202 4.56055 27.1364C4.56055 29.2526 6.27606 30.9681 8.39225 30.9681Z" fill="white"/>
</g>
<defs>
<clipPath id="clip0_1895_111">
<rect width="32" height="35" fill="white" transform="translate(0.5)"/>
</clipPath>
</defs>
</svg>
