<svg width="29" height="28" viewBox="0 0 29 28" fill="none" xmlns="http://www.w3.org/2000/svg">
<g clip-path="url(#clip0_1895_117)">
<mask id="mask0_1895_117" style="mask-type:luminance" maskUnits="userSpaceOnUse" x="0" y="0" width="29" height="28">
<path d="M28.5 0H0.5V28H28.5V0Z" fill="white"/>
</mask>
<g mask="url(#mask0_1895_117)">
<path fill-rule="evenodd" clip-rule="evenodd" d="M28.5 14C28.5 21.732 22.232 28 14.5 28C6.76801 28 0.5 21.732 0.5 14C0.5 6.26801 6.76801 0 14.5 0C22.232 0 28.5 6.26801 28.5 14ZM3.5 14.2C3.5 16.9 4.6 19.7 6.7 21.8C8.8 23.9 11.6 24.9 14.4 25L3.5 14.2ZM3.8 11.6L16.9 24.7C21.8 23.6 25.5 19.2 25.5 14H18.5V16H23.3C22.6 19 20.4 21.5 17.5 22.5L6 11C7.3 7.5 10.6 5 14.5 5C17.5 5 20.2 6.5 21.9 8.8L23.4 7.5C21.4 4.8 18.2 3 14.5 3C9.3 3 4.9 6.7 3.8 11.6Z" fill="white"/>
</g>
</g>
<defs>
<clipPath id="clip0_1895_117">
<rect width="28" height="28" fill="white" transform="translate(0.5)"/>
</clipPath>
</defs>
</svg>
