<svg width="28" height="28" viewBox="0 0 28 28" fill="none" xmlns="http://www.w3.org/2000/svg">
<g clip-path="url(#clip0_855_52)">
<path d="M14 28C21.732 28 28 21.732 28 14C28 6.26801 21.732 0 14 0C6.26801 0 0 6.26801 0 14C0 21.732 6.26801 28 14 28Z" fill="#BBB8C7"/>
<path d="M6.2 21.8C4.1 19.7 3 16.9 3 14.2L13.9 25C11.1 24.9 8.3 23.9 6.2 21.8ZM16.4 24.7L3.3 11.6C4.4 6.7 8.8 3 14 3C17.7 3 20.9 4.8 22.9 7.5L21.4 8.8C19.7 6.5 17 5 14 5C10.1 5 6.8 7.5 5.5 11L17 22.5C19.9 21.5 22.1 19 22.8 16H18V14H25C25 19.2 21.3 23.6 16.4 24.7Z" fill="#282A3D"/>
</g>
<defs>
<clipPath id="clip0_855_52">
<rect width="28" height="28" fill="white"/>
</clipPath>
</defs>
</svg>
