<svg width="60" height="60" viewBox="0 0 60 60" fill="none" xmlns="http://www.w3.org/2000/svg">
<path d="M5.01924 15.5773L30 1.1547L54.9808 15.5773V44.4226L30 58.8453L5.01924 44.4226V15.5773Z" stroke="white" stroke-width="2"/>
<path d="M23.36 37.2C22.2933 37.2 21.3 37.0267 20.38 36.68C19.4733 36.32 18.68 35.82 18 35.18C17.3333 34.5267 16.8133 33.76 16.44 32.88C16.0667 32 15.88 31.04 15.88 30C15.88 28.96 16.0667 28 16.44 27.12C16.8133 26.24 17.34 25.48 18.02 24.84C18.7 24.1867 19.4933 23.6867 20.4 23.34C21.3067 22.98 22.3 22.8 23.38 22.8C24.5267 22.8 25.5733 23 26.52 23.4C27.4667 23.7867 28.2667 24.3667 28.92 25.14L27.24 26.72C26.7333 26.1733 26.1667 25.7667 25.54 25.5C24.9133 25.22 24.2333 25.08 23.5 25.08C22.7667 25.08 22.0933 25.2 21.48 25.44C20.88 25.68 20.3533 26.02 19.9 26.46C19.46 26.9 19.1133 27.42 18.86 28.02C18.62 28.62 18.5 29.28 18.5 30C18.5 30.72 18.62 31.38 18.86 31.98C19.1133 32.58 19.46 33.1 19.9 33.54C20.3533 33.98 20.88 34.32 21.48 34.56C22.0933 34.8 22.7667 34.92 23.5 34.92C24.2333 34.92 24.9133 34.7867 25.54 34.52C26.1667 34.24 26.7333 33.82 27.24 33.26L28.92 34.86C28.2667 35.62 27.4667 36.2 26.52 36.6C25.5733 37 24.52 37.2 23.36 37.2ZM31.4113 37V23H37.9713C39.6513 23 40.9313 23.3333 41.8113 24C42.6913 24.6533 43.1313 25.5333 43.1313 26.64C43.1313 27.3867 42.9579 28.0267 42.6113 28.56C42.2646 29.08 41.7979 29.4867 41.2113 29.78C40.6379 30.06 40.0113 30.2 39.3313 30.2L39.6913 29.48C40.4779 29.48 41.1846 29.6267 41.8113 29.92C42.4379 30.2 42.9313 30.6133 43.2913 31.16C43.6646 31.7067 43.8513 32.3867 43.8513 33.2C43.8513 34.4 43.3913 35.3333 42.4713 36C41.5513 36.6667 40.1846 37 38.3713 37H31.4113ZM34.0113 34.96H38.2113C39.1846 34.96 39.9313 34.8 40.4513 34.48C40.9713 34.16 41.2313 33.6467 41.2313 32.94C41.2313 32.2467 40.9713 31.74 40.4513 31.42C39.9313 31.0867 39.1846 30.92 38.2113 30.92H33.8113V28.9H37.6913C38.5979 28.9 39.2913 28.74 39.7713 28.42C40.2646 28.1 40.5113 27.62 40.5113 26.98C40.5113 26.3267 40.2646 25.84 39.7713 25.52C39.2913 25.2 38.5979 25.04 37.6913 25.04H34.0113V34.96Z" fill="white"/>
</svg>
