<svg width="36" height="35" viewBox="0 0 36 35" fill="none" xmlns="http://www.w3.org/2000/svg">
<g clip-path="url(#clip0_1895_124)">
<mask id="mask0_1895_124" style="mask-type:luminance" maskUnits="userSpaceOnUse" x="0" y="0" width="36" height="35">
<path d="M35.5 0H0.5V35H35.5V0Z" fill="white"/>
</mask>
<g mask="url(#mask0_1895_124)">
<mask id="mask1_1895_124" style="mask-type:alpha" maskUnits="userSpaceOnUse" x="0" y="0" width="36" height="35">
<path d="M18 35C27.665 35 35.5 27.165 35.5 17.5C35.5 7.83502 27.665 0 18 0C8.33502 0 0.5 7.83502 0.5 17.5C0.5 27.165 8.33502 35 18 35Z" fill="black"/>
</mask>
<g mask="url(#mask1_1895_124)">
<path d="M18 35C27.665 35 35.5 27.165 35.5 17.5C35.5 7.83502 27.665 0 18 0C8.33502 0 0.5 7.83502 0.5 17.5C0.5 27.165 8.33502 35 18 35Z" fill="white"/>
<path d="M29.571 30.6289L13.9443 10.5H11V24.4942H13.3554V13.4913L27.722 32.0532C28.3703 31.6194 28.9879 31.1432 29.571 30.6289Z" fill="url(#paint0_linear_1895_124)"/>
<path d="M25.1947 10.5H22.8613V24.5H25.1947V10.5Z" fill="url(#paint1_linear_1895_124)"/>
</g>
</g>
</g>
<defs>
<linearGradient id="paint0_linear_1895_124" x1="21.6944" y1="22.6528" x2="28.5972" y2="31.2083" gradientUnits="userSpaceOnUse">
<stop stop-color="#282A3D"/>
<stop offset="1" stop-color="#282A3D" stop-opacity="0"/>
</linearGradient>
<linearGradient id="paint1_linear_1895_124" x1="24.028" y1="10.5" x2="23.9889" y2="20.7813" gradientUnits="userSpaceOnUse">
<stop stop-color="#282A3D"/>
<stop offset="1" stop-color="#282A3D" stop-opacity="0"/>
</linearGradient>
<clipPath id="clip0_1895_124">
<rect width="35" height="35" fill="white" transform="translate(0.5)"/>
</clipPath>
</defs>
</svg>
