<svg width="38" height="37" viewBox="0 0 38 37" fill="none" xmlns="http://www.w3.org/2000/svg">
<g clip-path="url(#clip0_548_1183)">
<path d="M7.09442 2.28479H30.7422C33.4991 2.28479 35.7263 4.51198 35.7263 7.26886V30.0012C35.7263 32.7581 33.4991 34.9853 30.7422 34.9853H7.09442C4.33754 34.9853 2.11035 32.7581 2.11035 30.0012V7.26886C2.11035 4.51198 4.33754 2.28479 7.09442 2.28479Z" stroke="#BBB8C7" stroke-width="3"/>
<path d="M8.84912 25.8209V10.1218C8.84912 10.015 8.89489 9.95397 9.00169 9.95397C9.26105 9.95397 9.50516 9.95397 9.85606 9.93871C10.2222 9.92345 10.6036 9.92345 11.0156 9.9082C11.4275 9.89294 11.8699 9.89294 12.3429 9.87768C12.8158 9.86243 13.2735 9.86243 13.7312 9.86243C14.9823 9.86243 16.0197 10.015 16.8741 10.3354C17.6369 10.5947 18.3387 11.0219 18.9185 11.5864C19.4067 12.0746 19.7881 12.6696 20.0322 13.3257C20.2611 13.9665 20.3831 14.6225 20.3831 15.309C20.3831 16.6211 20.078 17.7043 19.4677 18.5587C18.8575 19.4131 18.0031 20.0539 17.0114 20.42C15.974 20.8014 14.8297 20.9387 13.5787 20.9387C13.2125 20.9387 12.9684 20.9387 12.8158 20.9235C12.6633 20.9082 12.4497 20.9082 12.1598 20.9082V25.8056C12.1751 25.9124 12.0988 26.0039 11.992 26.0192C11.9767 26.0192 11.9615 26.0192 11.931 26.0192H9.0322C8.91015 26.0192 8.84912 25.9582 8.84912 25.8209ZM12.1751 12.8985V18.0247C12.3887 18.04 12.587 18.0552 12.7701 18.0552H13.5787C14.1737 18.0552 14.7687 17.9637 15.3332 17.7806C15.8214 17.6433 16.2486 17.3534 16.5842 16.972C16.9046 16.5906 17.0572 16.0719 17.0572 15.4006C17.0724 14.9276 16.9504 14.4547 16.7063 14.0427C16.4469 13.6461 16.0808 13.3409 15.6383 13.1731C15.0738 12.9443 14.4636 12.8527 13.838 12.868C13.4414 12.868 13.0905 12.868 12.8006 12.8832C12.4955 12.868 12.2819 12.8832 12.1751 12.8985Z" fill="#BBB8C7"/>
<path d="M29.9033 17.0941C29.4456 16.85 28.9574 16.6822 28.4387 16.5754C27.8742 16.4533 27.3097 16.3771 26.7299 16.3771C26.4248 16.3618 26.1044 16.4076 25.8145 16.4839C25.6162 16.5296 25.4484 16.6364 25.3416 16.789C25.2653 16.911 25.2195 17.0636 25.2195 17.2009C25.2195 17.3382 25.2805 17.4755 25.3721 17.5976C25.5094 17.7654 25.6925 17.9027 25.8908 18.0095C26.2417 18.1926 26.6079 18.3604 26.974 18.513C27.7979 18.7876 28.5912 19.169 29.3235 19.6267C29.827 19.9471 30.2389 20.3743 30.5288 20.893C30.7729 21.3812 30.895 21.9152 30.8797 22.4644C30.895 23.1815 30.6814 23.8986 30.2847 24.4936C29.8575 25.1038 29.2625 25.5768 28.576 25.8514C27.8284 26.1718 26.913 26.3396 25.8145 26.3396C25.1127 26.3396 24.4262 26.2786 23.7396 26.1413C23.2056 26.0498 22.6716 25.8819 22.1834 25.6531C22.0766 25.5921 22.0004 25.4853 22.0156 25.3632V22.7086C22.0156 22.6628 22.0309 22.6018 22.0766 22.5712C22.1224 22.5407 22.1682 22.556 22.214 22.5865C22.809 22.9374 23.4345 23.1815 24.1058 23.3341C24.6855 23.4866 25.2958 23.5629 25.9061 23.5629C26.4858 23.5629 26.8977 23.4866 27.1724 23.3493C27.4165 23.2425 27.5843 22.9832 27.5843 22.7086C27.5843 22.495 27.4622 22.2966 27.2181 22.0983C26.974 21.9 26.4706 21.6711 25.723 21.3812C24.9449 21.1066 24.2278 20.7404 23.5565 20.2828C23.0836 19.9471 22.6869 19.5047 22.397 18.9859C22.1529 18.4977 22.0309 17.9637 22.0461 17.4298C22.0461 16.7737 22.2292 16.1482 22.5649 15.5837C22.9463 14.9734 23.5108 14.4852 24.1668 14.1801C24.8839 13.8139 25.784 13.6461 26.8672 13.6461C27.4927 13.6461 28.1335 13.6919 28.759 13.7834C29.2167 13.8445 29.6592 13.9665 30.0711 14.1343C30.1321 14.1496 30.1932 14.2106 30.2237 14.2716C30.2389 14.3327 30.2542 14.3937 30.2542 14.4547V16.9415C30.2542 17.0026 30.2237 17.0636 30.1779 17.0941C30.0406 17.1246 29.9643 17.1246 29.9033 17.0941Z" fill="#BBB8C7"/>
</g>
<defs>
<clipPath id="clip0_548_1183">
<rect width="36.6159" height="35.7005" fill="white" transform="translate(0.610352 0.78479)"/>
</clipPath>
</defs>
</svg>
