<svg width="37" height="37" viewBox="0 0 37 37" fill="none" xmlns="http://www.w3.org/2000/svg">
<g clip-path="url(#clip0_1895_136)">
<mask id="mask0_1895_136" style="mask-type:luminance" maskUnits="userSpaceOnUse" x="0" y="0" width="37" height="37">
<path d="M36.428 0.342529H0.727539V36.043H36.428V0.342529Z" fill="white"/>
</mask>
<g mask="url(#mask0_1895_136)">
<path fill-rule="evenodd" clip-rule="evenodd" d="M31.7943 1.53453C33.2291 2.29621 34.4018 3.47164 35.1601 4.90823C35.9366 6.36302 36.3501 7.80592 36.3501 11.7835V18.7699C36.3501 18.8601 36.2957 18.9414 36.2123 18.9759C36.129 19.0104 36.0331 18.9913 35.9693 18.9276V18.9266L33.3364 16.2888C33.1273 16.0793 33.01 15.7953 33.0101 15.4994V12.2705C33.0101 9.2865 32.6997 8.20457 32.1176 7.11373C31.5487 6.03641 30.669 5.15501 29.5928 4.58395C28.5164 4.006 27.4477 3.69602 24.5413 3.68955L20.1887 3.68945C20.0987 3.68897 20.0178 3.63446 19.9835 3.55123C19.9493 3.46799 19.9684 3.37233 20.032 3.30865L22.6649 0.669784C22.8732 0.460539 23.1568 0.342529 23.4523 0.342529H24.9329C28.9026 0.342529 30.3425 0.757052 31.7943 1.53453ZM26.3312 5.92073C28.7905 5.92073 30.7838 7.91897 30.7838 10.3833V13.2086C30.7834 13.2976 30.7301 13.3779 30.6482 13.4128C30.5663 13.4477 30.4715 13.4306 30.407 13.3692L26.8171 9.9301C26.5791 9.69209 26.3014 9.51954 26.0049 9.41145C25.7533 9.31615 25.4865 9.26743 25.2175 9.26766H14.6204C14.5302 9.26758 14.4489 9.21321 14.4144 9.12989C14.3799 9.04656 14.399 8.95066 14.4627 8.88685L17.0996 6.247C17.3079 6.03874 17.5905 5.92073 17.886 5.92073H26.3312Z" fill="white"/>
<path fill-rule="evenodd" clip-rule="evenodd" d="M33.3907 19.6902L36.0247 22.3291C36.2329 22.5383 36.3509 22.823 36.3509 23.1185V24.603C36.3509 28.5806 35.9374 30.0235 35.1609 31.4783C34.4026 32.9149 33.2299 34.0904 31.7951 34.852C30.3433 35.6285 28.9034 36.043 24.9337 36.043H17.9632C17.8732 36.0426 17.7923 35.9881 17.758 35.9048C17.7238 35.8216 17.7429 35.7259 17.8065 35.6622L20.4394 33.0244C20.6477 32.8151 20.9313 32.6971 21.2268 32.6971H24.4488C27.4258 32.6971 28.5047 32.3867 29.5936 31.8026C30.6698 31.2316 31.5495 30.3502 32.1184 29.2728C32.7005 28.182 33.0109 27.1001 33.0109 24.1161V19.8479C33.0114 19.7582 33.0656 19.6774 33.1485 19.643C33.2314 19.6086 33.3268 19.6272 33.3907 19.6902ZM27.8254 14.111L30.4593 16.7529C30.6676 16.9621 30.7846 17.2457 30.7846 17.5423V26.0053C30.7846 28.4696 28.7913 30.4678 26.332 30.4678H23.5126C23.4236 30.4674 23.3434 30.4141 23.3084 30.3322C23.2735 30.2503 23.2906 30.1555 23.352 30.091L26.7832 26.4912C27.0212 26.2532 27.1937 25.9755 27.3018 25.678C27.3966 25.426 27.445 25.1589 27.4446 24.8896V14.2687C27.4447 14.1785 27.4991 14.0973 27.5824 14.0628C27.6657 14.0283 27.7616 14.0473 27.8254 14.111Z" fill="white"/>
<path fill-rule="evenodd" clip-rule="evenodd" d="M1.10735 17.458L3.74225 20.0968C3.9505 20.3061 4.06851 20.5907 4.06851 20.8862V24.1151C4.06851 27.0991 4.37792 28.181 4.96103 29.2718C5.52971 30.349 6.40902 31.2304 7.48485 31.8016C8.57372 32.3857 9.65366 32.6961 12.6307 32.6961H16.889C16.9793 32.6958 17.061 32.75 17.0957 32.8334C17.1305 32.9168 17.1115 33.013 17.0476 33.0769L14.4127 35.7158C14.2045 35.925 13.9209 36.043 13.6263 36.043H12.1448C8.17506 36.043 6.73613 35.6285 5.28431 34.851C3.84915 34.0895 2.67612 32.9141 1.91756 31.4773C1.14884 30.0371 0.735846 28.6085 0.727663 24.7206L0.727539 17.6156C0.728012 17.5259 0.782218 17.4451 0.865113 17.4107C0.948007 17.3763 1.04345 17.3949 1.10735 17.458ZM6.67068 23.0163L10.2616 26.4555C10.4986 26.6935 10.7772 26.866 11.0728 26.9741C11.3167 27.0673 11.5825 27.1179 11.8602 27.1179H22.4573C22.5473 27.1184 22.6282 27.1729 22.6624 27.2561C22.6967 27.3394 22.6775 27.435 22.6139 27.4987L19.9781 30.1386C19.7698 30.3468 19.4862 30.4648 19.1917 30.4648H10.7465C9.56426 30.4635 8.43097 29.9926 7.59594 29.1557C6.76091 28.3188 6.29253 27.1845 6.29384 26.0023V23.177C6.29428 23.088 6.34758 23.0077 6.42947 22.9728C6.51135 22.9379 6.60616 22.9549 6.67068 23.0163Z" fill="white"/>
<path fill-rule="evenodd" clip-rule="evenodd" d="M13.5658 5.92073C13.6549 5.92116 13.7351 5.97447 13.77 6.05635C13.8049 6.13824 13.7879 6.23305 13.7265 6.29757L10.2943 9.89737C10.0563 10.1354 9.88472 10.413 9.77663 10.7105C9.68151 10.9625 9.63279 11.2296 9.63283 11.4989V22.1198C9.63197 22.2094 9.57761 22.2898 9.49481 22.3239C9.412 22.3581 9.31679 22.3394 9.25302 22.2765L6.61912 19.6347C6.41065 19.4253 6.29369 19.1418 6.29384 18.8463V10.3833C6.29384 7.91897 8.28712 5.92073 10.7465 5.92073H13.5658ZM19.1153 0.342529C19.2053 0.343007 19.2862 0.397516 19.3205 0.480752C19.3547 0.563989 19.3356 0.659652 19.272 0.723335L16.6391 3.3622C16.4298 3.57144 16.1472 3.68945 15.8517 3.68945H12.6297C9.65267 3.68945 8.57273 3.99985 7.48386 4.58395C6.40766 5.15501 5.52799 6.03641 4.95904 7.11372C4.38305 8.19309 4.07309 9.26372 4.06663 12.1769L4.06653 16.5387C4.06606 16.6284 4.01185 16.7091 3.92896 16.7436C3.84606 16.778 3.75062 16.7594 3.68672 16.6963L1.05479 14.0575C0.84536 13.8481 0.727539 13.5642 0.727539 13.2681V11.7835C0.727539 7.80592 1.14107 6.36302 1.91756 4.90823C2.67585 3.47164 3.84853 2.29621 5.28332 1.53453C6.72062 0.764827 8.14626 0.350856 12.0255 0.342654L19.1153 0.342529Z" fill="white"/>
</g>
</g>
<defs>
<clipPath id="clip0_1895_136">
<rect width="36" height="37" fill="white" transform="translate(0.5)"/>
</clipPath>
</defs>
</svg>
