<svg width="36" height="37" viewBox="0 0 36 37" fill="none" xmlns="http://www.w3.org/2000/svg">
<g clip-path="url(#clip0_548_1141)">
<path fill-rule="evenodd" clip-rule="evenodd" d="M31.2943 1.53453C32.7291 2.29621 33.9018 3.47164 34.6601 4.90823C35.4366 6.36302 35.8501 7.80592 35.8501 11.7835V18.7699C35.8501 18.8601 35.7957 18.9414 35.7123 18.9759C35.629 19.0104 35.5331 18.9913 35.4693 18.9276V18.9266L32.8364 16.2888C32.6273 16.0793 32.51 15.7953 32.5101 15.4994V12.2705C32.5101 9.2865 32.1997 8.20457 31.6176 7.11373C31.0487 6.03641 30.169 5.15501 29.0928 4.58395C28.0164 4.006 26.9477 3.69602 24.0413 3.68955L19.6887 3.68945C19.5987 3.68897 19.5178 3.63446 19.4835 3.55123C19.4493 3.46799 19.4684 3.37233 19.532 3.30865L22.1649 0.669784C22.3732 0.460539 22.6568 0.342529 22.9523 0.342529H24.4329C28.4026 0.342529 29.8425 0.757052 31.2943 1.53453ZM25.8312 5.92073C28.2905 5.92073 30.2838 7.91897 30.2838 10.3833V13.2086C30.2834 13.2976 30.2301 13.3779 30.1482 13.4128C30.0663 13.4477 29.9715 13.4306 29.907 13.3692L26.3171 9.9301C26.0791 9.69209 25.8014 9.51954 25.5049 9.41145C25.2533 9.31615 24.9865 9.26743 24.7175 9.26766H14.1204C14.0302 9.26758 13.9489 9.21321 13.9144 9.12989C13.8799 9.04656 13.899 8.95066 13.9627 8.88685L16.5996 6.247C16.8079 6.03874 17.0905 5.92073 17.386 5.92073H25.8312Z" fill="#BBB8C7"/>
<path fill-rule="evenodd" clip-rule="evenodd" d="M32.8902 19.6902L35.5242 22.3291C35.7324 22.5383 35.8504 22.823 35.8504 23.1185V24.603C35.8504 28.5806 35.4369 30.0235 34.6604 31.4783C33.9021 32.9149 32.7294 34.0904 31.2946 34.852C29.8428 35.6285 28.4029 36.043 24.4332 36.043H17.4627C17.3727 36.0426 17.2918 35.9881 17.2575 35.9048C17.2233 35.8216 17.2424 35.7259 17.306 35.6622V35.6632L19.9389 33.0244C20.1472 32.8151 20.4308 32.6971 20.7263 32.6971H23.9483C26.9253 32.6971 28.0042 32.3867 29.0931 31.8026C30.1693 31.2316 31.049 30.3502 31.6179 29.2728C32.2 28.182 32.5104 27.1001 32.5104 24.1161V19.8479C32.5109 19.7582 32.5651 19.6774 32.648 19.643C32.7309 19.6086 32.8263 19.6272 32.8902 19.6902ZM27.3249 14.111L29.9588 16.7529C30.1671 16.9621 30.2841 17.2457 30.2841 17.5423V26.0053C30.2841 28.4696 28.2908 30.4678 25.8315 30.4678H23.0121C22.9231 30.4674 22.8429 30.4141 22.8079 30.3322C22.773 30.2503 22.7901 30.1555 22.8515 30.091V30.09L26.2827 26.4912C26.5207 26.2532 26.6932 25.9755 26.8013 25.678C26.8961 25.426 26.9445 25.1589 26.9441 24.8896V14.2687C26.9442 14.1785 26.9986 14.0973 27.0819 14.0628C27.1652 14.0283 27.2611 14.0473 27.3249 14.111Z" fill="#BBB8C7"/>
<path fill-rule="evenodd" clip-rule="evenodd" d="M0.606864 17.458L3.24176 20.0968C3.45001 20.3061 3.56802 20.5907 3.56802 20.8862V24.1151C3.56802 27.0991 3.87743 28.181 4.46054 29.2718C5.02922 30.349 5.90853 31.2304 6.98436 31.8016C8.07323 32.3857 9.15317 32.6961 12.1302 32.6961H16.3885C16.4788 32.6958 16.5605 32.75 16.5952 32.8334C16.63 32.9168 16.611 33.013 16.5471 33.0769L13.9122 35.7158C13.704 35.925 13.4204 36.043 13.1258 36.043H11.6443C7.67457 36.043 6.23564 35.6285 4.78382 34.851C3.34866 34.0895 2.17563 32.9141 1.41707 31.4773C0.648347 30.0371 0.235358 28.6085 0.227175 24.7206L0.227051 17.6156C0.227524 17.5259 0.28173 17.4451 0.364625 17.4107C0.447519 17.3763 0.542965 17.3949 0.606864 17.458ZM6.17019 23.0163H6.1692L9.76107 26.4555C9.99808 26.6935 10.2767 26.866 10.5723 26.9741C10.8162 27.0673 11.082 27.1179 11.3597 27.1179H21.9568C22.0468 27.1184 22.1277 27.1729 22.1619 27.2561C22.1962 27.3394 22.177 27.435 22.1134 27.4987L19.4776 30.1386C19.2693 30.3468 18.9857 30.4648 18.6912 30.4648H10.246C9.06377 30.4635 7.93048 29.9926 7.09545 29.1557C6.26042 28.3188 5.79204 27.1845 5.79335 26.0023V23.177C5.79379 23.088 5.84709 23.0077 5.92898 22.9728C6.01086 22.9379 6.10567 22.9549 6.17019 23.0163Z" fill="#BBB8C7"/>
<path fill-rule="evenodd" clip-rule="evenodd" d="M13.0653 5.92073C13.1544 5.92116 13.2346 5.97447 13.2695 6.05635C13.3044 6.13824 13.2874 6.23305 13.226 6.29757L9.79379 9.89737C9.55579 10.1354 9.38423 10.413 9.27614 10.7105C9.18102 10.9625 9.1323 11.2296 9.13234 11.4989V22.1198C9.13148 22.2094 9.07712 22.2898 8.99432 22.3239C8.91151 22.3581 8.8163 22.3394 8.75253 22.2765L6.11863 19.6347C5.91016 19.4253 5.7932 19.1418 5.79335 18.8463V10.3833C5.79335 7.91897 7.78663 5.92073 10.246 5.92073H13.0653ZM18.6148 0.342529C18.7048 0.343007 18.7857 0.397516 18.82 0.480752C18.8542 0.563989 18.8351 0.659652 18.7715 0.723335L16.1386 3.3622C15.9293 3.57144 15.6467 3.68945 15.3512 3.68945H12.1292C9.15218 3.68945 8.07224 3.99985 6.98337 4.58395C5.90717 5.15501 5.0275 6.03641 4.45855 7.11372C3.88256 8.19309 3.5726 9.26372 3.56614 12.1769L3.56604 16.5387C3.56557 16.6284 3.51136 16.7091 3.42847 16.7436C3.34557 16.778 3.25013 16.7594 3.18623 16.6963L0.554305 14.0575C0.344872 13.8481 0.227051 13.5642 0.227051 13.2681V11.7835C0.227051 7.80592 0.640582 6.36302 1.41707 4.90823C2.17536 3.47164 3.34804 2.29621 4.78283 1.53453C6.22013 0.764827 7.64577 0.350856 11.525 0.342654L18.6148 0.342529Z" fill="#BBB8C7"/>
</g>
<defs>
<clipPath id="clip0_548_1141">
<rect width="35.7005" height="35.7005" fill="white" transform="translate(0.227051 0.342529)"/>
</clipPath>
</defs>
</svg>
