<svg width="38" height="37" viewBox="0 0 38 37" fill="none" xmlns="http://www.w3.org/2000/svg">
<g clip-path="url(#clip0_548_1162)">
<path d="M6.91229 2.28503H30.5601C33.3169 2.28503 35.5441 4.51222 35.5441 7.2691V30.0015C35.5441 32.7584 33.3169 34.9855 30.5601 34.9855H6.91229C4.15541 34.9855 1.92822 32.7584 1.92822 30.0015V7.2691C1.92822 4.51222 4.15541 2.28503 6.91229 2.28503Z" stroke="#BBB8C7" stroke-width="3"/>
<path d="M19.6822 10.1679L15.1052 17.72L19.9874 25.7297C20.0179 25.7907 20.0331 25.8517 20.0179 25.9128C20.0026 25.9738 19.9416 25.928 19.8501 25.9433H16.3563C16.1122 25.9433 15.9444 25.928 15.8376 25.7755C15.5172 25.1347 15.1815 24.5092 14.8611 23.8684C14.5408 23.2429 14.1898 22.6021 13.8237 21.9461C13.4575 21.29 13.0914 20.634 12.7252 19.9627H12.6947C12.3743 20.6187 12.0234 21.2748 11.6725 21.9308C11.3216 22.5868 10.9707 23.2429 10.6351 23.8836C10.2842 24.5244 9.93325 25.1805 9.58235 25.806C9.52132 25.9585 9.39927 25.9738 9.23145 25.9738H5.87499C5.81396 25.9738 5.76819 26.0043 5.76819 25.928C5.75294 25.867 5.76819 25.806 5.79871 25.7602L10.5435 17.9793L5.92076 10.1527C5.87499 10.0917 5.85973 10.0306 5.89025 10.0001C5.92076 9.95434 5.98178 9.93909 6.04281 9.93909H9.50607C9.58235 9.93909 9.65863 9.95434 9.71966 9.9696C9.78068 10.0001 9.82645 10.0459 9.87222 10.1069C10.1621 10.7629 10.4977 11.419 10.8486 12.075C11.2148 12.731 11.5657 13.3718 11.9471 14.0126C12.3133 14.6534 12.6489 15.2942 12.9693 15.9502H12.9998C13.3202 15.2789 13.6559 14.6229 13.9915 13.9821C14.3272 13.3413 14.6781 12.7005 15.029 12.0598C15.3799 11.419 15.7155 10.7629 16.0512 10.1374C16.0664 10.0764 16.0969 10.0154 16.1427 9.98486C16.2037 9.95434 16.2647 9.93909 16.341 9.95434H19.5602C19.6365 9.93909 19.7127 9.98486 19.728 10.0611C19.7433 10.0764 19.7127 10.1374 19.6822 10.1679Z" fill="#BBB8C7"/>
<path d="M26.7307 26.2637C25.6017 26.2789 24.4728 26.0501 23.4506 25.5771C22.4894 25.1347 21.6961 24.4024 21.1468 23.5022C20.5823 22.5716 20.3077 21.4121 20.3077 20.0237C20.2924 18.8947 20.5823 17.781 21.1468 16.8046C21.7266 15.8129 22.5657 14.989 23.5726 14.4398C24.6406 13.8448 25.9221 13.5549 27.4325 13.5549C27.5088 13.5549 27.6156 13.5549 27.7529 13.5702C27.8902 13.5854 28.0428 13.5854 28.2259 13.6007V8.77957C28.2259 8.67277 28.2717 8.61175 28.3784 8.61175H31.4755C31.5518 8.59649 31.6129 8.65752 31.6281 8.71854C31.6281 8.7338 31.6281 8.74906 31.6281 8.74906V23.2734C31.6281 23.548 31.6434 23.8531 31.6586 24.1888C31.6891 24.5092 31.7044 24.8143 31.7196 25.0736C31.7196 25.1804 31.6739 25.272 31.5671 25.3178C30.7737 25.6534 29.9346 25.8975 29.0803 26.0501C28.3022 26.1874 27.5241 26.2637 26.7307 26.2637ZM28.2259 23.2123V16.4994C28.0886 16.4689 27.9513 16.4384 27.814 16.4231C27.6461 16.4079 27.4783 16.3926 27.3105 16.3926C26.7155 16.3926 26.1205 16.5147 25.5865 16.7893C25.0678 17.0487 24.6253 17.4301 24.2897 17.9183C23.954 18.4065 23.7862 19.0625 23.7862 19.8559C23.771 20.3899 23.8625 20.9238 24.0456 21.4273C24.1981 21.8392 24.427 22.2054 24.7321 22.5105C25.022 22.7852 25.3729 22.9987 25.7696 23.1208C26.1815 23.2581 26.6087 23.3191 27.0359 23.3191C27.2647 23.3191 27.4783 23.3039 27.6766 23.2886C27.875 23.3039 28.0428 23.2734 28.2259 23.2123Z" fill="#BBB8C7"/>
</g>
<defs>
<clipPath id="clip0_548_1162">
<rect width="36.6159" height="35.7005" fill="white" transform="translate(0.428223 0.785034)"/>
</clipPath>
</defs>
</svg>
